<svg width="96" height="96" xmlns="http://www.w3.org/2000/svg" xmlns:xlink="http://www.w3.org/1999/xlink" xml:space="preserve" overflow="hidden"><defs><clipPath id="clip0"><rect x="0" y="0" width="96" height="96"/></clipPath></defs><g clip-path="url(#clip0)"><path d="M41.694 19.9C44.9782 20.1903 48.0714 21.5688 50.483 23.817 51.055 24.3543 51.658 24.882 52.292 25.4 55.402 27.939 59.94 28.461 63.616 28.606L33.055 59.163 28.807 59.913 17.971 70.749 27.371 69.09 25.712 78.49 36.547 67.653 37.296 63.406 67.941 32.762C68.076 36.468 68.573 41.098 71.152 44.256 71.644 44.856 72.146 45.4317 72.658 45.983 75.403 48.9524 76.8255 52.9085 76.6 56.946 76.6 57.979 76.584 59.074 76.566 60.086 76.552 60.816 76.54 61.518 76.535 62.146L76.523 64.173C76.386 68.0686 76.575 71.9689 77.088 75.833L77.239 76.696 74.767 75.765 74.767 75.8 41.38 63.281 40.673 67.288 75.383 80.3C76.1528 83.6972 78.6206 86.4569 81.911 87.6 83.9872 88.3772 86.3003 87.3242 87.0775 85.2481 87.258 84.766 87.3441 84.2536 87.331 83.739 87.2336 82.0788 86.1611 80.6344 84.6 80.061 81.964 78.894 82.573 72.961 83.72 64.735 84.936 56.021 86.314 46.145 82.141 38.535 80.8938 36.2775 79.2783 34.2441 77.361 32.519 75.6164 31.0992 74.3953 29.138 73.891 26.946L73.862 26.846 80.228 20.48 83.808 24.06 86.232 10.322 72.494 12.741 75.986 16.232 69.62 22.6 69.52 22.571C67.3269 22.0668 65.3646 20.8453 63.944 19.1 62.2185 17.1834 60.1853 15.5682 57.928 14.321 50.315 10.148 40.439 11.521 31.728 12.741 23.5 13.887 17.565 14.5 16.4 11.859 15.839 10.3219 14.4314 9.25451 12.8 9.129 10.5807 9.03561 8.70585 10.759 8.61245 12.9783 8.58994 13.5132 8.67444 14.0472 8.861 14.549 10.0041 17.8394 12.7638 20.3072 16.161 21.077L29.172 55.786 33.178 55.079 19.878 19.227 20.692 19.37C24.6227 19.8925 28.5901 20.0868 32.553 19.951L34.446 19.934C35.066 19.928 35.76 19.913 36.481 19.897 37.525 19.876 38.66 19.853 39.718 19.853 40.238 19.8343 40.7587 19.8417 41.278 19.875Z" fill="#FFFFFF"/></g></svg>